<?xml version="1.0" encoding="utf-8"?>
<!-- Generator: Adobe Illustrator 19.0.0, SVG Export Plug-In . SVG Version: 6.00 Build 0)  -->
<svg version="1.1" id="Layer_1" xmlns="http://www.w3.org/2000/svg" xmlns:xlink="http://www.w3.org/1999/xlink" x="0px" y="0px"
	 viewBox="0 0 512 512" style="enable-background:new 0 0 512 512;" xml:space="preserve">
<g id="XMLID_2_">
	<path id="XMLID_6_" d="M437.6,38.3c0,49.3-10.2,93.6-30.6,131.8c-20.4,38.3-45.9,67.2-75.7,87.6c30.6,20.4,55.3,49.3,75.7,87.6
		c20.4,38.3,30.6,81.6,30.6,131.8h27.2c2.6,0,5.1,0.9,6.8,2.6c1.7,1.7,2.6,4.3,2.6,6.8v17.9c0,2.6-0.9,5.1-2.6,6.8
		c-1.7,0-3.4,0.9-6.8,0.9H46.4c-2.6,0-5.1-0.9-6.8-2.6c-1.7-1.7-2.6-4.3-2.6-6.8v-17.9c0-2.6,0.9-5.1,2.6-6.8
		c1.7-1.7,4.3-2.6,6.8-2.6h27.2c0-49.3,10.2-93.6,30.6-131.8s45.9-67.2,75.7-87.6c-30.6-20.4-55.3-49.3-75.7-87.6
		S73.6,86.8,73.6,36.6H46.4c-2.6,0-5.1-0.9-6.8-2.6c-1.7-1.7-2.6-4.3-2.6-6.8V9.4c0-2.6,0.9-5.1,2.6-6.8C41.2,0.9,43.8,0,46.4,0
		h419.3c2.6,0,5.1,0.9,6.8,2.6c1.7,1.7,2.6,4.3,2.6,6.8v17.9c0,2.6-0.9,5.1-2.6,6.8c-1.7,1.7-4.3,2.6-6.8,2.6h-28.1V38.3z
		 M285.3,239.8c14.5-5.1,28.9-14.5,42.5-26.4c13.6-11.9,26.4-26.4,36.6-43.4c11.1-17,19.6-36.6,26.4-59.5
		c6.8-23,10.2-46.8,10.2-72.3H110.1c0,24.7,3.4,49.3,10.2,72.3s15.3,42.5,26.4,59.5s23,31.5,36.6,43.4
		c13.6,11.9,28.1,20.4,42.5,26.4c3.4,1.7,6.8,3.4,8.5,6.8c2.6,3.4,3.4,6.8,3.4,10.2s-0.9,7.7-3.4,10.2c-2.6,3.4-5.1,5.1-8.5,6.8
		c-26.4,9.4-49.3,28.1-69.7,56.1h199c-20.4-27.2-43.4-45.9-69.7-56.1c-3.4-1.7-6.8-3.4-8.5-6.8c-2.6-3.4-3.4-6.8-3.4-10.2
		s0.9-7.7,3.4-10.2C279.4,243.2,281.9,240.7,285.3,239.8z"/>
</g>
</svg>
