<svg width="144" height="104" viewBox="0 0 144 104" fill="none" xmlns="http://www.w3.org/2000/svg">
<path d="M73.6445 0C74.0046 0.0115506 74.3659 0.0464467 74.7246 0.112305C75.4764 0.249731 76.0343 0.436632 76.7295 0.78418C78.7911 1.811 80.2227 3.57368 80.8291 5.82129L81.0146 6.5L81.0459 32.9912L92.7686 19.9951L93.2148 19.5H100.471V22.5H94.5498L81.0518 37.4648L81.0557 40.7168L81.0957 74.9336L81.7832 75.3867C85.3162 77.7476 87.5558 81.1028 88.4209 85.3555C88.6392 86.4065 88.7116 88.7753 88.5742 89.9639C87.8142 96.4076 83.0282 101.703 76.6816 103.11C75.6658 103.335 74.6487 103.452 73.6445 103.47C72.6404 103.452 71.6233 103.335 70.6074 103.11C64.2608 101.703 59.4739 96.4076 58.7139 89.9639C58.5765 88.7753 58.6499 86.4065 58.8682 85.3555C59.7333 81.1029 61.9729 77.7476 65.5059 75.3867L66.1934 74.9336L66.2178 53.9111L51.7021 70.0049L51.2549 70.5H44V67.5H49.9209L66.2227 49.4248L66.2734 6.5L66.46 5.82129C67.0663 3.57396 68.4974 1.81105 70.5586 0.78418C71.2536 0.436686 71.8128 0.249724 72.5645 0.112305C72.923 0.0464838 73.2846 0.0115446 73.6445 0ZM73.1885 46.1826H76.4365V77.7725L77.0674 77.999C80.5843 79.2442 83.2526 82.2923 84.0449 85.9629C84.3117 87.1919 84.3117 89.2049 84.0449 90.4014C83.8266 91.4201 83.5596 92.172 83.123 93.0371C81.5949 96.0933 78.6843 98.2598 75.3047 98.8662C74.294 99.0441 72.5956 99.0441 71.585 98.8662C67.203 98.0818 63.8233 94.8077 62.8369 90.4014C62.5782 89.2129 62.5789 87.2 62.8457 85.9629C63.6381 82.2922 66.3059 79.2442 69.8311 77.999L70.4531 77.7725V49.2148L68.9824 50.8457V76.5264L67.9639 77.1162C65.5305 78.5391 63.8238 80.3102 62.6758 82.6143C60.9537 86.0504 60.9379 90.3204 62.6357 93.708C64.4307 97.2812 67.552 99.6821 71.4648 100.507C72.0282 100.624 72.8271 100.685 73.6445 100.696C74.4621 100.685 75.2609 100.624 75.8242 100.507C79.7372 99.6821 82.8584 97.2814 84.6533 93.708C86.3512 90.3203 86.3354 86.0505 84.6133 82.6143C83.4652 80.3101 81.7587 78.5392 79.3252 77.1162L78.3066 76.5264V42.0352C78.3066 41.5212 78.3057 41.0124 78.3057 40.5088L73.1885 46.1826ZM30.8799 58.2617C33.1677 58.2618 35.1718 58.8483 36.8926 60.0215C38.6135 61.1948 39.8165 62.8178 40.501 64.8906H35.7783C35.309 63.9129 34.6436 63.1793 33.7832 62.6904C32.9425 62.2017 31.9649 61.9571 30.8506 61.957C29.6579 61.957 28.5919 62.2407 27.6533 62.8076C26.7343 63.3551 26.0104 64.1376 25.4824 65.1543C24.974 66.1712 24.7197 67.3645 24.7197 68.7334C24.7197 70.0826 24.9741 71.2752 25.4824 72.3115C26.0104 73.3284 26.7342 74.1214 27.6533 74.6885C28.5919 75.2358 29.6579 75.5098 30.8506 75.5098C31.9649 75.5097 32.9425 75.265 33.7832 74.7764C34.6436 74.268 35.309 73.5246 35.7783 72.5469H40.501C39.8165 74.6392 38.6134 76.272 36.8926 77.4453C35.1914 78.5989 33.1872 79.1757 30.8799 79.1758C28.9244 79.1758 27.1543 78.7364 25.5703 77.8564C24.0059 76.9569 22.7638 75.7148 21.8447 74.1309C20.9452 72.5469 20.4961 70.7476 20.4961 68.7334C20.4961 66.7192 20.9452 64.9199 21.8447 63.3359C22.7638 61.7324 24.0059 60.4904 25.5703 59.6104C27.1543 58.7109 28.9244 58.2617 30.8799 58.2617ZM7.46191 57.0342C9.70269 57.0342 11.423 57.6331 12.6221 58.832C13.8211 60.0114 14.4209 61.5745 14.4209 63.5205C14.4209 65.0537 14.0082 66.5185 13.1826 67.9141C12.3571 69.3096 11.4129 70.5276 10.3516 71.5693C9.29011 72.5915 7.90446 73.8306 6.19434 75.2852H14.8926V78.7051H0.327148V75.6387L1.86035 74.3418C3.74734 72.7693 5.25068 71.4617 6.37109 70.4199C7.49152 69.3585 8.42492 68.2573 9.17188 67.1172C9.91878 65.9771 10.293 64.8566 10.293 63.7559C10.2929 62.7536 10.0566 61.9674 9.58496 61.3975C9.11322 60.8275 8.38603 60.542 7.40332 60.542C6.42049 60.542 5.66354 60.8766 5.13281 61.5449C4.60209 62.1936 4.32727 63.0884 4.30762 64.2285H0.296875C0.375495 61.8699 1.07384 60.081 2.39062 58.8623C3.72722 57.6436 5.41774 57.0342 7.46191 57.0342ZM17.4561 57.9248C18.2083 57.9249 18.8206 58.1397 19.293 58.5684C19.7652 58.9882 20.0019 59.5523 20.002 60.2607C20.002 60.9779 19.7611 61.5509 19.2803 61.9795C18.8079 62.4081 18.1907 62.623 17.4297 62.623C16.6774 62.623 16.0652 62.4081 15.5928 61.9795C15.1204 61.5508 14.8838 60.9781 14.8838 60.2607C14.8838 59.5434 15.1204 58.9746 15.5928 58.5547C16.0739 58.1349 16.6951 57.9248 17.4561 57.9248ZM17.4297 58.9355C17.1235 58.9355 16.8613 59.0538 16.6426 59.29C16.4239 59.5174 16.3145 59.845 16.3145 60.2734C16.3145 60.6934 16.4189 61.0177 16.6289 61.2451C16.8476 61.4726 17.1148 61.5859 17.4297 61.5859C17.7358 61.5859 17.9982 61.4724 18.2168 61.2451C18.4443 61.0177 18.5576 60.6934 18.5576 60.2734C18.5575 59.8452 18.4488 59.5174 18.2305 59.29C18.0118 59.0539 17.7446 58.9356 17.4297 58.9355ZM73.6445 2.76465C73.4187 2.76106 73.2347 2.76831 73.1465 2.78906C73.0574 2.80533 72.8228 2.86955 72.6211 2.91797C71.9502 3.07974 71.0446 3.61382 70.5029 4.15527C69.6704 4.9879 69.2333 5.86932 69.0635 7.00098C69.015 7.35792 68.9824 19.9716 68.9824 42.0352V46.3662L78.3037 36.0312C78.2983 17.6947 78.2695 7.32337 78.2256 7.00098C78.0558 5.86923 77.6188 4.98796 76.7861 4.15527C76.2444 3.61368 75.3389 3.07968 74.668 2.91797C74.4662 2.86952 74.2317 2.80531 74.1426 2.78906C74.0544 2.76829 73.8704 2.76106 73.6445 2.76465ZM110.96 10.2598C112.449 10.2598 113.705 10.5112 114.729 11.0137C115.771 11.4975 116.542 12.1587 117.045 12.9961C117.566 13.8149 117.827 14.7266 117.827 15.7314C117.827 16.7547 117.576 17.657 117.073 18.4385C116.571 19.2014 115.901 19.7976 115.063 20.2256C116.087 20.6722 116.887 21.3237 117.464 22.1797C118.041 23.0356 118.329 24.0495 118.329 25.2217C118.329 26.4871 118.004 27.5949 117.353 28.5439C116.72 29.4743 115.845 30.1909 114.729 30.6934C113.612 31.1958 112.356 31.4463 110.96 31.4463C109.564 31.4463 108.308 31.1958 107.191 30.6934C106.094 30.191 105.22 29.4741 104.568 28.5439C103.936 27.5949 103.619 26.4871 103.619 25.2217C103.619 24.0495 103.908 23.0356 104.484 22.1797C105.061 21.3051 105.861 20.6536 106.885 20.2256C105.024 19.2579 104.094 17.7598 104.094 15.7314C104.094 14.7267 104.344 13.8148 104.847 12.9961C105.368 12.1587 106.141 11.4975 107.164 11.0137C108.206 10.5113 109.471 10.2598 110.96 10.2598ZM134.145 11.2656C136.322 11.2656 138.23 11.8239 139.867 12.9404C141.504 14.0569 142.649 15.6011 143.3 17.5732H138.806C138.359 16.6432 137.727 15.9456 136.908 15.4805C136.108 15.0152 135.177 14.7822 134.116 14.7822C132.981 14.7823 131.967 15.0523 131.074 15.5918C130.2 16.1128 129.511 16.8575 129.009 17.8252C128.525 18.7928 128.282 19.9279 128.282 21.2305C128.282 22.5144 128.525 23.6495 129.009 24.6357C129.511 25.6033 130.2 26.3569 131.074 26.8965C131.967 27.4174 132.981 27.6787 134.116 27.6787C135.177 27.6787 136.108 27.4457 136.908 26.9805C137.727 26.4967 138.359 25.7895 138.806 24.8594H143.3C142.649 26.8502 141.504 28.4041 139.867 29.5205C138.248 30.6184 136.34 31.168 134.145 31.168C132.284 31.168 130.599 30.7485 129.092 29.9111C127.603 29.0551 126.421 27.8734 125.547 26.3662C124.691 24.859 124.263 23.147 124.263 21.2305C124.263 19.3137 124.691 17.6011 125.547 16.0938C126.421 14.568 127.603 13.3862 129.092 12.5488C130.599 11.6928 132.284 11.2656 134.145 11.2656ZM110.96 21.9277C109.899 21.9278 109.034 22.1978 108.364 22.7373C107.713 23.277 107.387 24.0498 107.387 25.0547C107.387 25.985 107.703 26.7483 108.336 27.3438C108.987 27.9206 109.862 28.209 110.96 28.209C112.058 28.209 112.923 27.9108 113.556 27.3154C114.188 26.72 114.505 25.9664 114.505 25.0547C114.505 24.0685 114.18 23.3053 113.528 22.7656C112.877 22.2074 112.021 21.9277 110.96 21.9277ZM110.96 13.4141C110.03 13.4141 109.285 13.6655 108.727 14.168C108.187 14.6704 107.918 15.3871 107.918 16.3174C107.918 17.1548 108.197 17.8247 108.755 18.3271C109.332 18.8296 110.067 19.081 110.96 19.0811C111.853 19.0811 112.588 18.8296 113.165 18.3271C113.742 17.8062 114.03 17.1272 114.03 16.29C114.03 15.3782 113.752 14.6704 113.193 14.168C112.654 13.6655 111.909 13.4141 110.96 13.4141ZM122.025 10.1221C122.741 10.1221 123.325 10.3255 123.774 10.7334C124.224 11.133 124.448 11.6704 124.448 12.3447C124.448 13.0273 124.219 13.5726 123.762 13.9805C123.312 14.3884 122.725 14.5928 122.001 14.5928C121.285 14.5928 120.702 14.3883 120.253 13.9805C119.803 13.5726 119.578 13.0273 119.578 12.3447C119.578 11.6621 119.803 11.1213 120.253 10.7217C120.711 10.3222 121.301 10.1222 122.025 10.1221ZM122.001 11.083C121.71 11.083 121.46 11.1961 121.252 11.4209C121.044 11.6373 120.939 11.9495 120.939 12.3574C120.939 12.7569 121.04 13.0649 121.239 13.2812C121.447 13.4976 121.701 13.6055 122.001 13.6055C122.292 13.6054 122.542 13.4976 122.75 13.2812C122.966 13.0649 123.075 12.7569 123.075 12.3574C123.075 11.9496 122.971 11.6373 122.763 11.4209C122.555 11.1962 122.301 11.083 122.001 11.083Z" fill="black"/>
</svg>
